<svg width="856" height="856" viewBox="0 0 856 856" fill="none" xmlns="http://www.w3.org/2000/svg">
<path d="M428 0L438.528 227.116L472.738 2.34464L459.468 229.317L516.986 9.35281L480.064 233.694L560.259 20.9478L500.089 240.201L602.083 37.0025L519.325 248.765L642 57.3411L537.56 259.293L679.572 81.7407L554.594 271.669L714.388 109.934L570.242 285.758L746.066 141.612L584.331 301.406L774.259 176.428L596.707 318.44L798.659 214L607.235 336.675L818.997 253.917L615.799 355.911L835.052 295.741L622.306 375.936L846.647 339.014L626.683 396.532L853.655 383.262L628.884 417.472L856 428L628.884 438.528L853.655 472.738L626.683 459.468L846.647 516.986L622.306 480.064L835.052 560.259L615.799 500.089L818.997 602.083L607.235 519.325L798.659 642L596.707 537.56L774.259 679.572L584.331 554.594L746.066 714.388L570.242 570.242L714.388 746.066L554.594 584.331L679.572 774.259L537.56 596.707L642 798.659L519.325 607.235L602.083 818.997L500.089 615.799L560.259 835.052L480.064 622.306L516.986 846.647L459.468 626.683L472.738 853.655L438.528 628.884L428 856L417.472 628.884L383.262 853.655L396.532 626.683L339.014 846.647L375.936 622.306L295.741 835.052L355.911 615.799L253.917 818.997L336.675 607.235L214 798.659L318.44 596.707L176.428 774.259L301.406 584.331L141.612 746.066L285.758 570.242L109.934 714.388L271.669 554.594L81.7407 679.572L259.293 537.56L57.3411 642L248.765 519.325L37.0025 602.083L240.201 500.089L20.9478 560.259L233.694 480.064L9.35281 516.986L229.317 459.468L2.34464 472.738L227.116 438.528L0 428L227.116 417.472L2.34464 383.262L229.317 396.532L9.35281 339.014L233.694 375.936L20.9478 295.741L240.201 355.911L37.0025 253.917L248.765 336.675L57.3411 214L259.293 318.44L81.7407 176.428L271.669 301.406L109.934 141.612L285.758 285.758L141.612 109.934L301.406 271.669L176.428 81.7407L318.44 259.293L214 57.3411L336.675 248.765L253.917 37.0025L355.911 240.201L295.741 20.9478L375.936 233.694L339.014 9.35281L396.532 229.317L383.262 2.34464L417.472 227.116L428 0Z" fill="black"/>
</svg>
