<svg width="1366" height="768" viewBox="0 0 1366 768" fill="none" xmlns="http://www.w3.org/2000/svg">
<path fill-rule="evenodd" clip-rule="evenodd" d="M1366 0H0V768H1366V0ZM425.458 456.668C443.873 460.885 468.939 466.625 420.5 494.5C378.1 518.9 356.833 530.333 351.5 533C390.333 524.333 470.2 509.6 479 520C490 533 486 551 479 574C474.663 588.252 483.572 584.841 495.735 580.185C503.201 577.327 511.893 574 519.5 574C539.5 574 569.5 575 566.5 600C563.5 625 549.5 662 545.5 669C543.603 672.319 557.896 658.325 574.518 642.05C592.948 624.004 614.242 603.155 619.5 600C629.5 594 649.5 587 655.5 600C656.916 603.067 658.582 607.358 660.432 612.125C666.426 627.566 674.359 648 682 648C689.617 648 703.617 627.112 712.065 614.506C714.708 610.563 716.809 607.43 718 606C723 600 743 592 753 606C756.964 611.55 762.814 622.6 768.806 633.918C777.928 651.149 787.378 669 791 669C794.542 669 789.718 653.661 785.378 639.861C782.368 630.289 779.59 621.457 780 619C780.662 615.031 790.514 622.878 798.844 629.513C803.106 632.907 806.969 635.985 809 637C813.352 639.176 811.391 617.677 809.985 602.268C809.453 596.433 809 591.472 809 589C809 580 834.5 601 840.5 606C842.992 608.077 840.826 601.699 837.979 593.316C833.971 581.519 828.616 565.754 833 564C840.5 561 896.5 578 906.5 589C910.125 592.987 905.472 585.807 898.305 574.746C885.699 555.289 865.312 523.825 868.5 520C873.5 514 932.5 543 941.5 549C943.329 550.219 942.721 549.766 940.643 548.215C932.492 542.135 901.719 519.179 906.5 514C909.541 510.706 919.773 510.365 929.257 510.05C938.487 509.743 947.007 509.459 947.5 506.5C947.991 503.553 938.112 498.437 927.93 493.162C917.378 487.697 906.5 482.062 906.5 478.5C906.5 476.642 905.866 474.714 905.215 472.734C903.413 467.253 901.481 461.377 912.5 455.5C927.5 447.5 1024 441.5 1079 448.5C1115.41 453.133 1062.65 438.927 1019.63 427.342C997.655 421.424 978.219 416.191 974.5 414.5C963.5 409.5 911.5 383.5 935.5 372.5C959.5 361.5 1014 351.5 1029 351.5C1044 351.5 1013.5 340 974.5 330C935.5 320 917.5 299 929.5 282C937.838 270.188 975.386 244.374 1002.56 225.694C1014.49 217.49 1024.42 210.662 1029 207C1035.69 201.646 1020.79 206.644 998.846 214C971.613 223.13 933.545 235.892 912.5 237C909.516 237.157 906.699 237.314 904.046 237.462C872.92 239.197 864.521 239.665 876.5 224C889.5 207 860 210 840.5 213C829.089 214.756 846.785 195.451 863.029 177.731C874.544 165.169 885.33 153.404 884.5 150.5C883.78 147.979 876.119 155.901 865.769 166.604C847.384 185.615 820.517 213.398 809 207C795.202 199.334 805.496 164.345 811.505 143.922C813.334 137.703 814.767 132.834 815 130.5C815.828 122.219 777.565 145.827 757.574 158.163C753.425 160.723 750.062 162.797 748 164C736 171 706 187.5 707 164C708 140.5 698 112.5 690 118.5C685.967 121.525 685.238 132.174 684.609 141.351C683.992 150.378 683.471 157.979 680 155.5C676.781 153.201 673.879 147.73 671.101 142.491C667.836 136.336 664.741 130.5 661.5 130.5C658.803 130.5 656.308 137.268 653.561 144.721C650.197 153.848 646.455 164 641.5 164C637.384 164 632.014 149.883 625.675 133.222C618.153 113.451 609.269 90.0977 599.5 82.5001C587.496 73.1639 589.279 94.0685 590.909 113.184C591.723 122.733 592.5 131.836 591.5 136.5C590.541 140.975 590.706 148.159 590.884 155.926C591.264 172.459 591.705 191.639 581.5 193C566.5 195 520.5 174.5 510.5 155.5C500.5 136.5 466 105.5 454 104.5C447.476 103.956 456.324 116.864 466.239 131.328C474.559 143.466 483.631 156.7 485 164C488 180 498.5 201 501.5 207C504.5 213 518 246 501.5 245L500.337 244.929C484.438 243.959 472.977 243.26 472 254C471.492 259.591 461.942 256.915 452.411 254.245C443.189 251.661 433.983 249.082 433 254C432.09 258.55 441.532 268.483 451.434 278.901C463.294 291.378 475.815 304.55 472 310C465 320 427.5 350.5 362 357.5C328.373 361.094 345.088 363.897 370.807 368.21C395.184 372.297 427.647 377.741 433 386.5C444 404.5 437 417.5 409 425.5C386.6 431.9 407.333 448.167 420.5 455.5C422.049 455.887 423.724 456.271 425.458 456.668Z" fill="black"/>
</svg>
